<svg xmlns="http://www.w3.org/2000/svg" xmlns:xlink="http://www.w3.org/1999/xlink"><defs><style/><filter id="color-overlay-1" filterUnits="userSpaceOnUse"><feFlood flood-opacity="1"/><feComposite operator="in" in2="SourceGraphic"/><feBlend in2="SourceGraphic" result="colorOverlay"/></filter><path id="a" d="M0 0h29.5v21.8H0z"/></defs><symbol id="arrow_line" viewBox="0 0 7.1 198.1"><style>.st0{fill:none;stroke:#ae206a;stroke-linecap:round;stroke-linejoin:round;stroke-miterlimit:10}</style><path class="st0" d="M6.6.6v43.5l-6 5.5 6 4.9v143.1"/></symbol><symbol id="circle_arrow" viewBox="0 0 37.4 37.7"><path d="M18.7 13.1v10.2m4-3.4l-4 4-4.2-4.2" fill="none" stroke-width="3" stroke-linecap="round" stroke-linejoin="round" stroke-miterlimit="10"/><circle cx="18.7" cy="18.8" r="17.1" fill="none" stroke-width="3" stroke-miterlimit="10"/></symbol><symbol id="close_modal" viewBox="0 0 17 17"><path id="icon-close" d="M7.686 8.502L.161 16.08A.541.541 0 0 0 .54 17a.527.527 0 0 0 .378-.158L8.5 9.207l7.581 7.635a.53.53 0 0 0 .757 0 .541.541 0 0 0 0-.762L9.313 8.502l7.53-7.583a.541.541 0 0 0 0-.762.534.534 0 0 0-.757 0L8.5 7.797.913.157a.534.534 0 0 0-.757 0 .541.541 0 0 0 0 .762l7.53 7.583z" fill="#a70c5d"/></symbol><symbol id="dots" viewBox="0 91 612 612"><path d="M315.3 341.4c-30.7 0-55.6 24.9-55.6 55.6 0 30.7 24.9 55.6 55.6 55.6s55.6-24.9 55.6-55.6c0-30.7-24.9-55.6-55.6-55.6z" fill="#c1c1c1"/></symbol><symbol id="download_arrow" viewBox="-285 380.1 40.4 33.9"><style>.st0{fill:#a70c5d;stroke-miterlimit:10}.st0,.st1{stroke:#a70c5d;stroke-width:3;stroke-linecap:round;stroke-linejoin:round}.st1,.st2{fill:#a70c5d}</style><path class="st0" d="M-276.4 406.8c3.7 4.5 9.4 6.3 14.7 5.3"/><path class="st1" d="M-279.4 392.3c-1.5 4.7-.7 10 2.7 14.2"/><path class="st2" d="M-285 390.8l10.5-5.6-.3 11.9z"/><path class="st0" d="M-253.3 387.3c-3.7-4.5-9.4-6.3-14.7-5.3"/><path class="st1" d="M-250.3 401.9c1.5-4.7.7-10-2.7-14.2"/><path class="st2" d="M-244.6 403.3l-10.6 5.7.4-12z"/></symbol><symbol id="fb_ico" viewBox="0 0 5 12" preserveAspectRatio="xMidYMid"><path d="M3.333 4V2.809c0-.537.099-.809.795-.809H5V0H3.544C1.761 0 1.172.981 1.172 2.666V4H0v1.999h1.172V12h2.161V5.999h1.469L5 4H3.333z" id="path-1" class="cls-2" fill-rule="evenodd"/></symbol><symbol id="info_ico" viewBox="0 0 488.9 488.9"><path d="M239.15 0c31.9 0 57.7 25.8 57.7 57.7s-25.8 57.7-57.7 57.7-57.7-25.8-57.7-57.7S207.25 0 239.15 0zm52.5 151.6h-97.7c-19 0-34.3 15.4-34.3 34.3 0 19 15.4 34.3 34.3 34.3h3.4v200h-37.7v68.7h169.6v-68.7h-37.5V151.6h-.1z"/></symbol><symbol id="in_ico" viewBox="0 0 17.8 17"><path d="M4.3 2c0 1.1-.8 2-2.2 2C.8 4 0 3.1 0 2s.9-2 2.2-2c1.3 0 2.1.9 2.1 2zM.2 17H4V5.5H.2V17zM13.4 5.3c-2 0-2.9 1.1-3.4 1.9V5.5H6.2c.1 1.1 0 11.5 0 11.5H10v-6.4c0-.3 0-.7.1-.9.3-.7.9-1.4 2-1.4 1.4 0 1.9 1.1 1.9 2.6V17h3.8v-6.6c0-3.5-1.9-5.1-4.4-5.1zm0 0"/></symbol><symbol id="logo" viewBox="0 0 232.6 109.4"><g fill="#970048"><path d="M80.3 16.9c-.2-.2-.4-.4-.7-.4 0 0-3-.3-7.2-.5V1c0-.4-.2-.7-.5-.9-.3-.2-.7-.2-1 0L58.6 7c-4.5-2.9-11-6.1-18-6.1H39C32 .9 25.5 4.1 21 7L8.9.1C8.6 0 8.2 0 7.8.1c-.3.2-.5.6-.5.9v15c-3.7.2-6.3.4-6.4.4-.5.1-.9.6-.9 1.2.1.8 1.5 15.3 7.3 24.7V53c-.4-.1-.7-.2-.8-.2-.3-.1-.6 0-.9.2-.3.2-.4.5-.4.8 0 .9-.8 22.6 7.7 35 6.7 9.7 14.8 14.8 19.4 17.1 4.1 2.3 7.1 3.4 7.3 3.4.1 0 .2.1.4.1.1 0 .3 0 .4-.1.2-.1 2.9-1.2 6.7-3.4 4.6-2.3 12.8-7.4 19.4-17.1 1.1-1.6 2-3.4 2.9-5.2 2.1-4.1 3.4-8.5 3.7-12.9 1.5-8.7 1.2-16.4 1.2-16.9 0-.3-.2-.6-.4-.8-.3-.2-.6-.3-.9-.2-.1 0-.3.1-.6.2v-9.3c2.1-3.1 4-7.5 5.6-13.1 1.9-6.7 2.6-12.6 2.6-12.9 0-.3-.1-.6-.3-.8zM9.4 2.8l11.2 6.3c.3.2.8.2 1.1 0C24.8 7 29.2 4.7 34 3.6v7.5c0 .6.5 1 1 1 .6 0 1-.5 1-1V3.2c.9-.2 1.9-.2 2.8-.2v11c0 .6.5 1 1 1 .6 0 1-.5 1-1V3c.9 0 1.8.1 2.7.2v7.9c0 .6.5 1 1 1 .6 0 1-.5 1-1V3.6c5 1 9.4 3.4 12.5 5.5.3.2.7.2 1.1 0l11.2-6.3v13.1H67c-10 0-16.8 1.3-20.1 3.7-2.9 2.1-4.9 4.9-6.1 8.1-.2.4-.4.8-.6 1.3-1-3.6-3.2-6.9-6.5-9.3-3.3-2.5-10.1-3.7-20.1-3.7-1.4 0-2.8 0-4.2.1V2.8zm44.6 45c-1.9 0-4.2-.7-6-1.5-1.2-.9-2.2-1.9-3.1-3.2-3.2-4.4-3.8-9.9-2.1-14.6 2.2-3.9 6.4-6.6 11.3-6.6 7.1 0 12.9 5.8 12.9 12.9-.1 7.2-5.9 13-13 13zm-28 0c-7.1 0-12.9-5.8-12.9-12.9C13.1 27.8 18.9 22 26 22c6.2 0 11.5 4.4 12.7 10.3.4 3.7-.6 7.7-3 10.9-.7 1-1.5 1.8-2.4 2.6-1.9.8-4.9 2-7.3 2zm11.4-3.4c1.4-1.9 2.3-3.9 2.8-6 .6 2.1 1.5 4.1 2.9 6 .2.2.3.4.5.6l-.1.1-3.5 4.8-3.4-4.5c.3-.3.6-.6.8-1zM13.6 18c9.4 0 15.9 1.1 18.9 3.3-2-.9-4.2-1.5-6.5-1.5-8.3 0-15 6.7-15 15 0 7 4.8 12.9 11.3 14.6-3-.2-5.8-1.2-8.4-3-8.3-5.6-11-23.4-11.6-28 1.9-.1 6.3-.4 11.3-.4zm21.9 85.8c-.1.4-.1.8-.2 1.2-.4-.2-1-.4-1.6-.7-.8-.5-1.7-1-2.7-1.6 6-15.4 0-32.8-13.4-43 5.6 3.1 11.7 8 15.1 15.1 5.3 11.4 3.5 23.8 2.8 29zM14.6 87.6C8.1 78 7.3 62 7.3 56.1c18.7 7.9 28.4 28 21.9 45.5-1.4-1-2.9-2-4.4-3.2-2.8-2.4-5.4-4.8-7.6-7.4-.9-1-1.7-2.2-2.6-3.4zM44.1 105c0-.3-.1-.7-.2-1.2-.8-5.3-2.5-17.6 2.8-29.1 3.3-7.1 9.5-12 15.1-15.1-13.5 10.3-19.4 27.6-13.5 43-.9.6-1.7 1.1-2.5 1.5-.6.4-1.2.7-1.7.9zm22-19.6C63.4 89.8 59.6 94 55 97.8c-1.6 1.4-3.2 2.6-4.8 3.7C43.8 84 53.5 64 72.1 56.1c0 5.5-.6 19.7-6 29.3zm4.2-31.8c-5.8 1.9-19.4 7.7-25.3 20.3-5.6 12-3.8 24.8-3 30.3.1.8.2 1.6.2 2 0 .1 0 .1-.1.2-1 .5-1.7.8-2.1 1-.5-.2-1.4-.6-2.7-1.2 0-.4.1-1.2.2-2 .8-5.5 2.6-18.2-3-30.3-5.8-12.4-19.1-18.2-25.1-20.2v-8.5c1 1.1 2 2.1 3.2 2.9 3.3 2.2 7 3.4 10.8 3.4 4.1 0 8-1.4 11.1-4 .3-.1.6-.3.8-.4l3.8 5.1c.2.3.5.4.8.4.3 0 .6-.2.8-.4l3.8-5.1c.6.3 1.4.7 2.4 1.1 2.9 2 6.3 3.1 10 3.1s7.5-1.1 10.8-3.2c.8-.5 1.6-1.2 2.4-1.9v7.4zM75.9 30c-2.4 8.5-5.5 14.2-9.1 16.4-2.6 1.6-5.4 2.5-8.2 2.8 6-1.9 10.4-7.6 10.4-14.3 0-8.3-6.7-15-15-15-1.7 0-3.3.3-4.8.8C52.5 18.9 58.6 18 67 18c4.9 0 9.4.3 11.3.5-.3 2-1 6.6-2.4 11.5z" stroke="#970048" stroke-width=".25" stroke-miterlimit="10"/><path d="M26 25.7c-5 0-9.1 4.1-9.1 9.1s4.1 9.1 9.1 9.1 9.1-4.1 9.1-9.1-4.1-9.1-9.1-9.1zm0 12.4c-1.9 0-3.4-1.5-3.4-3.4s1.5-3.4 3.4-3.4 3.4 1.5 3.4 3.4-1.6 3.4-3.4 3.4zm27.8-12.4c-5 0-9.1 4.1-9.1 9.1s4.1 9.1 9.1 9.1 9.1-4.1 9.1-9.1-4.1-9.1-9.1-9.1zm0 12.4c-1.9 0-3.4-1.5-3.4-3.4s1.5-3.4 3.4-3.4 3.4 1.5 3.4 3.4-1.6 3.4-3.4 3.4z"/><path d="M102.3 26.6h-3.1c-.2-.6-.3-1.2-.3-1.7 0-.4.1-.7.3-.8.2-.2.5-.3.9-.3H111c6.8 0 11.4.8 13.7 2.5 2.3 1.7 3.5 4.4 3.5 8.2 0 3.9-1.4 7-4.2 9.1-2.8 2.2-7.5 3.3-14 3.3h-1.4c0 5.6.1 9.3.2 11.2h4.2c.2.5.3 1.1.3 1.6s-.1.8-.3 1c-.2.2-.5.3-1 .3H99c-.2-.6-.4-1.2-.4-1.7 0-.4.1-.7.3-.8.2-.2.5-.3.9-.3h2.5c.1-2.5.2-9 .2-19.4 0-5.6 0-9.7-.2-12.2zm8.4 16.9c4 0 6.8-.6 8.4-1.7 1.6-1.1 2.4-3.1 2.4-5.8 0-2.6-.8-4.6-2.3-6.1-1.5-1.4-4-2.1-7.4-2.1-1.1 0-2.2.1-3.1.3-.1 1.6-.2 5.2-.2 11v4.4h2.2zm21.1-8.2c0-.5.2-.8.6-.9.4-.1 2.8-.3 7.2-.4.1.8.1 1.9 0 3.3 2-1.4 3.9-2.3 5.8-2.8s3.5-.8 5.1-.8c.5 0 .8.1 1 .2.2.1.3.4.3.8 0 .8-.1 1.6-.4 2.5-.2.9-.5 1.4-.9 1.7-.3.2-.9.4-1.7.5-.8.1-1.3.2-1.4.1-.1-.1-.5-.6-1.2-1.5-1.6 0-2.9.5-3.9 1.5s-1.5 3.1-1.5 6.2c0 5.6.1 9.7.2 12.4h3.8c.2.5.3 1 .3 1.5s-.1.8-.3 1c-.2.2-.6.3-1.1.3h-11.5c-.2-.6-.4-1.1-.4-1.6 0-.4.1-.7.3-.9.2-.2.5-.3 1-.3h1.9c.1-2.7.2-6.2.2-10.6 0-5.3-.2-8.4-.6-9.3-.4-.9-1.2-1.3-2.4-1.3-.3-.5-.4-1-.4-1.6zm38.9 23.4c-1.5.9-3.1 1.6-4.7 2-1.6.5-3.2.7-4.7.7-2.4 0-4.3-.6-5.5-1.7-1.2-1.1-1.8-2.9-1.8-5.1 0-2.8 1-4.9 3-6.4s5-2.2 9.1-2.2h4c-.1-3.2-.6-5.4-1.4-6.7-.8-1.2-2.2-1.9-4.3-1.9-1.1 0-2.1.1-3.1.3-.5 1-.8 1.6-.9 1.7-.1.1-.6.2-1.6.5-.9.2-1.6.2-2-.1-.4-.3-.8-.9-1.1-1.8-.4-.9-.6-1.6-.6-2.1 0-.4.1-.6.4-.8.3-.2 1.5-.4 3.7-.7 2.1-.3 4.4-.4 6.8-.4 3.2 0 5.6.6 7.1 1.7s2.3 3.1 2.3 6.1V50c0 3.9.2 6.2.5 7.1.3.9.9 1.2 1.7 1 .2.4.3.8.3 1.2 0 .6-.4 1.1-1.2 1.4-.8.3-1.8.5-3.1.5-.6 0-1.1-.1-1.5-.2-.1-.2-.6-1-1.4-2.3zm-.5-9.2c-1.6-.3-3.2-.4-4.8-.4-2.1 0-3.5.3-4.3 1-.8.7-1.2 1.8-1.2 3.3 0 1.4.4 2.5 1.1 3.3.7.7 1.9 1.1 3.4 1.1 1.2 0 2.3-.2 3.3-.7 1-.5 1.7-1.1 2-2 .3-.8.5-2.2.5-4v-1.6zm29.3-12.2H198c-.2-.5-.3-1.1-.3-1.6s.1-.9.3-1.1c.2-.2.5-.3 1-.3h7.1c.2.5.4 1.1.4 1.6 0 .6-.1.9-.4 1.1-.2.2-.6.3-1.2.3h-.4c-.7 1.8-2.1 5.9-4.2 12.2-2.1 6.3-3.5 9.8-4.1 10.7-.6.8-1.6 1.2-2.9 1.2-2.2 0-3.3-.1-3.5-.3-.2-.2-1.2-3.4-3.2-9.6-2-6.2-3.2-9.9-3.6-11-.4-1.1-.8-2-1.1-2.5-.3-.5-.6-.8-1-.9-.4-.1-.9-.2-1.5-.2-.2-.6-.4-1.1-.4-1.6s.3-.9.9-1.1c.6-.2 2.1-.2 4.7-.2 1.1 0 1.9.1 2.3.3.4.2.8.5 1 1 .2.5.5 1.5.8 3.2.3 1.7 1.2 5.1 2.7 10.4 1.5 5.2 2.4 7.8 2.5 7.8.2 0 1.1-2.7 2.7-8.2 1.8-5.6 2.7-9.3 2.9-11.2zm20.1 24.1c-3.9 0-6.8-1-8.7-3.1-1.8-2.1-2.8-5.2-2.8-9.4 0-4.8 1.1-8.6 3.4-11.3 2.2-2.7 5.5-4 9.7-4 3.9 0 6.8 1 8.7 3.1 1.8 2.1 2.8 5.2 2.8 9.4 0 4.8-1.1 8.6-3.4 11.2-2.3 2.8-5.5 4.1-9.7 4.1zm1-3.6c2.1 0 3.6-.8 4.5-2.3.9-1.6 1.4-4 1.4-7.2 0-3.7-.5-6.5-1.4-8.3-.9-1.8-2.6-2.7-4.9-2.7-2.1 0-3.6.8-4.5 2.3-.9 1.6-1.4 4-1.4 7.2 0 3.7.5 6.5 1.4 8.3.9 1.8 2.6 2.7 4.9 2.7z" stroke="#970048" stroke-width=".25" stroke-miterlimit="10"/><path d="M105.8 83.8c-.7.4-1.4.7-2.1.9-.7.2-1.4.3-2.1.3-1.1 0-1.9-.3-2.5-.8-.5-.5-.8-1.3-.8-2.3 0-1.2.4-2.2 1.3-2.9.9-.7 2.3-1 4.1-1h1.8c0-1.4-.3-2.4-.6-3-.4-.6-1-.8-1.9-.8-.5 0-1 0-1.4.1-.2.5-.4.7-.4.8 0 0-.3.1-.7.2-.4.1-.7.1-.9-.1-.2-.2-.3-.4-.5-.8s-.3-.7-.3-1c0-.2.1-.3.2-.4.1-.1.7-.2 1.6-.3 1-.1 2-.2 3.1-.2 1.4 0 2.5.2 3.2.7.7.5 1 1.4 1 2.7v3.8c0 1.7.1 2.8.2 3.2.2.4.4.5.8.5.1.2.1.4.1.5 0 .3-.2.5-.5.6-.3.1-.8.2-1.4.2-.3 0-.5 0-.7-.1 0 .1-.2-.3-.6-.8zm-.2-4.2c-.7-.1-1.4-.2-2.2-.2-.9 0-1.6.2-2 .5-.4.3-.6.8-.6 1.5s.2 1.1.5 1.5c.3.3.8.5 1.5.5.5 0 1-.1 1.5-.3.5-.2.8-.5.9-.9.2-.4.2-1 .2-1.8v-.8zm14.3-5.8c.5.8.7 1.7.7 2.6 0 1.4-.4 2.5-1.3 3.3-.9.8-2.3 1.3-4.2 1.3-.9 0-1.4.1-1.7.3-.3.2-.4.5-.4.8 0 .4.2.7.5.9.3.2 1.6.3 3.8.3 2.1 0 3.5.2 4.1.7.6.4.9 1.1.9 1.9 0 1.3-.7 2.3-2 3.1-1.3.8-3.4 1.1-6.2 1.1-1.4 0-2.3-.2-2.8-.6-.5-.4-.7-.9-.7-1.6 0-.5.1-1 .4-1.5.3-.5.6-1 1.1-1.5-.4-.2-.7-.4-1-.7-.2-.3-.4-.7-.4-1.2s.2-.9.5-1.4c.3-.4.8-.8 1.4-1.1-.5-.2-.9-.6-1.3-1.1-.3-.5-.5-1.3-.5-2.1 0-1.4.4-2.6 1.3-3.5.9-.9 2.2-1.4 4-1.4 1 0 1.9.2 2.7.5 1.1-.5 1.7-.7 1.9-.7 1 0 1.5 0 1.6.1.1.1.1.1.1.3 0 .2-.1.5-.3.9-.2.4-.4.6-.5.6-.2 0-.7-.2-1.6-.6l-.1.3zm-6.1 11.3c-.3.3-.5.6-.7 1-.2.4-.2.7-.2 1.1 0 .6.2 1 .5 1.2.3.2 1 .4 2 .4 1.5 0 2.6-.2 3.3-.5.7-.4 1.1-.9 1.1-1.5s-.3-1-.8-1.2c-.5-.4-2.3-.5-5.2-.5zm2-11.3c-.8 0-1.4.2-1.7.7-.4.4-.6 1.2-.6 2.4 0 1 .2 1.7.5 2.1.4.4.9.7 1.7.7.8 0 1.4-.2 1.8-.6.4-.4.6-1.2.6-2.3 0-1-.2-1.7-.6-2.2-.3-.5-.9-.8-1.7-.8zm13-1.4c1.5 0 2.6.4 3.4 1.1.7.7 1.1 1.9 1.1 3.6 0 .7-.1 1.2-.4 1.5-.3.3-.8.4-1.7.4h-5.4c0 1.3.3 2.4.8 3.1.5.8 1.4 1.1 2.7 1.1 1.2 0 2.4-.3 3.4-1 .4.4.5.7.5 1.1 0 .5-.5.9-1.4 1.2-.9.2-1.9.3-3.1.3-2.1 0-3.6-.4-4.5-1.3-.9-.9-1.4-2.4-1.4-4.5s.5-3.7 1.5-4.9c1.3-1.1 2.7-1.7 4.5-1.7zm-.4 1.7c-.8 0-1.4.3-1.9.9-.4.6-.7 1.5-.7 2.7h1.3c1.3 0 2.3 0 2.7-.1.5-.1.8-.1.8-.3.1-.1.1-.4.1-.7 0-.8-.2-1.4-.6-1.9-.3-.4-.9-.6-1.7-.6zm10.2 0c.8-.5 1.6-.9 2.4-1.2.8-.3 1.5-.4 2.1-.4 1.1 0 1.9.3 2.5.8.6.5.8 1.5.8 2.9 0 4.4.1 6.7.2 7 .1.3.4.4.9.4.1.2.1.5.1.7 0 .2-.1.4-.2.4-.1.1-.4.1-.8.1h-2.1c-.3 0-.4-.1-.5-.3-.1-.1-.1-.4-.1-.7v-5.3c0-1.7-.2-2.8-.5-3.4-.4-.6-.9-.8-1.7-.8-.7 0-1.3.2-1.8.6-.5.4-.7 1.1-.7 2.1v2.6c0 1.4 0 2.8.1 4h1.4c.1.2.1.4.1.7 0 .2 0 .4-.1.5-.1.1-.3.1-.5.1h-4.8c-.1-.3-.2-.5-.2-.7 0-.2 0-.3.1-.4.1-.1.2-.1.4-.1h.8c.1-1.3.1-2.9.1-4.8 0-2.4-.1-3.8-.3-4.2-.2-.4-.5-.6-1.1-.6-.1-.2-.2-.5-.2-.7 0-.2.1-.4.3-.4.2-.1 1.3-.1 3.2-.2.2.2.2.7.1 1.3zM154.5 85c-2 0-3.4-.4-4.3-1.3-.8-.8-1.3-2.3-1.3-4.3 0-2.3.5-4 1.6-5.2 1.1-1.2 2.7-1.8 4.9-1.8 1.1 0 1.8.1 2.3.3.5.2.7.5.7.9 0 .5-.2 1-.5 1.4-1.2-.6-2.3-1-3.1-1-1.1 0-1.9.4-2.4 1.1-.5.7-.7 1.9-.7 3.4 0 1.6.2 2.8.7 3.6.5.8 1.3 1.2 2.5 1.2.9 0 2-.3 3.3-.9.3.4.4.8.4 1.2 0 .5-.4.8-1.3 1.1-.8.2-1.7.3-2.8.3zM171 74.1c-.4 1.2-1.2 3.7-2.4 7.6-1.2 3.8-2.1 6.1-2.6 6.8-.6.7-1.2 1.1-1.9 1.3-.7.2-1.5.3-2.4.3-.9 0-1.5-.1-1.7-.2-.3-.1-.4-.4-.4-.7 0-.4.1-.8.4-1.2 1.5.3 2.7.4 3.4.3.7-.1 1.4-1.2 2.2-3.5-.7 0-1-.1-1.1-.1-.1 0-.5-1.4-1.3-4.1-.8-2.7-1.3-4.4-1.5-5-.2-.6-.4-1-.5-1.2-.1-.2-.3-.4-.4-.4-.2-.1-.4-.1-.7-.1-.1-.3-.2-.5-.2-.7 0-.3.1-.4.4-.5.3-.1.8-.1 1.7-.1.7 0 1.1 0 1.3.1.2.1.4.2.5.4.1.2.2.8.4 1.7.2.9.6 2.5 1.2 4.7s.9 3.3 1 3.3c.1 0 .4-1.3 1.1-3.8.7-2.5 1.1-4.2 1.2-5h-.7c-.1-.2-.1-.5-.1-.7 0-.2 0-.4.1-.5.1-.1.2-.1.5-.1h3.5c.1.2.2.5.2.7 0 .3-.1.4-.2.5-.1.1-.3.1-.6.1h-.4z" stroke="#970048" stroke-width=".1" stroke-miterlimit="10"/></g></symbol><symbol id="nav_toggler" viewBox="0 0 29.5 21.8"><clipPath id="b"><use xlink:href="#a" overflow="visible"/></clipPath><path clip-path="url(#b)" fill="none" stroke="#a70c5d" stroke-width="2" stroke-miterlimit="10" d="M2 2h25.5M2 10.9h25.5M2 19.8h25.5"/></symbol><symbol id="play" viewBox="0 0 21.5 27.9"><path fill="none" stroke="#a70c5d" stroke-width="3" stroke-linecap="round" stroke-linejoin="round" stroke-miterlimit="10" d="M19.9 14L1.5 26.4V1.6z"/></symbol><symbol id="quote" viewBox="0 0 95.333 95.332"><path d="M30.512 43.939c-2.348-.676-4.696-1.019-6.98-1.019-3.527 0-6.47.806-8.752 1.793 2.2-8.054 7.485-21.951 18.013-23.516a2.501 2.501 0 0 0 2.04-1.799l2.301-8.23a2.5 2.5 0 0 0-2.068-3.15 17.477 17.477 0 0 0-2.354-.16c-12.637 0-25.152 13.19-30.433 32.076-3.1 11.08-4.009 27.738 3.627 38.223 4.273 5.867 10.507 9 18.529 9.313l.098.002c9.898 0 18.675-6.666 21.345-16.209a22.032 22.032 0 0 0-2.032-16.851c-2.875-5.105-7.61-8.826-13.334-10.473zm61.959 10.474c-2.875-5.106-7.61-8.827-13.334-10.474-2.348-.676-4.696-1.019-6.979-1.019a21.94 21.94 0 0 0-8.753 1.793c2.2-8.054 7.485-21.951 18.014-23.516a2.503 2.503 0 0 0 2.04-1.799l2.301-8.23a2.5 2.5 0 0 0-2.068-3.15 17.455 17.455 0 0 0-2.354-.16c-12.637 0-25.152 13.19-30.434 32.076-3.099 11.08-4.008 27.738 3.629 38.225 4.272 5.866 10.507 9 18.528 9.312l.099.002c9.897 0 18.675-6.666 21.345-16.209a22.045 22.045 0 0 0-2.034-16.851z"/></symbol><symbol id="service_1" viewBox="0 0 22 20"><path fill="none" stroke-width=".69" stroke-miterlimit="10" d="M.4 0h20.7v18.7H.4z"/><path fill="none" stroke-width=".75" stroke-miterlimit="10" d="M4.2 0v18.7M8 0v18.7"/><ellipse cx="2.4" cy="15.9" rx=".8" ry=".8" fill="none" stroke-width=".75" stroke-miterlimit="10"/><ellipse cx="6.1" cy="15.9" rx=".8" ry=".8" fill="none" stroke-width=".75" stroke-miterlimit="10"/><path fill="none" stroke-width=".75" stroke-miterlimit="10" d="M0 20.4h21.4m-11-16.5h5.7m-5.7 1.8h8.5m-8.5 1.8h5.7m-5.7 1.9h8.5"/></symbol><symbol id="service_2" viewBox="0 0 24.9 24.8"><g stroke-width=".2" stroke-miterlimit="10"><path d="M11.3 21.6c-4.5 0-8.1-3.6-8.1-8.1s3.6-8.1 8.1-8.1 8.1 3.6 8.1 8.1-3.6 8.1-8.1 8.1zm0-15.5c-4.1 0-7.4 3.3-7.4 7.4s3.3 7.4 7.4 7.4 7.4-3.3 7.4-7.4-3.4-7.4-7.4-7.4z"/><path d="M11.3 18.5c-2.8 0-5-2.3-5-5s2.3-5 5-5 5 2.3 5 5-2.2 5-5 5zm0-9.3C8.9 9.2 7 11.1 7 13.5s1.9 4.3 4.3 4.3 4.3-1.9 4.3-4.3-1.9-4.3-4.3-4.3z"/><path d="M11.3 15c-.9 0-1.5-.7-1.5-1.5s.7-1.5 1.5-1.5 1.5.7 1.5 1.5-.7 1.5-1.5 1.5zm0-2.3c-.4 0-.8.4-.8.8s.4.8.8.8.8-.4.8-.8-.4-.8-.8-.8z"/><path d="M11.7 13.5c-.1 0-.2 0-.3-.1-.1-.1-.1-.4 0-.5l9.5-9.6c.1-.1.4-.1.5 0 .1.1.1.4 0 .5L12 13.4c-.1.1-.2.1-.3.1z"/><path d="M22 7.8h-4.8v-5h1.5V1.6h1.2V0h2.7v2.2h2.3v2.5h-1.6v1.5H22v1.6zM17.9 7h3.3V5.4h1.3V3.9h1.6v-1h-2.3V.8h-1.2v1.6h-1.2v1.3h-1.5V7z"/><path d="M20.8 7.4h-.9c1.2 1.7 2 3.8 2 6.1 0 5.8-4.7 10.5-10.5 10.5S.8 19.3.8 13.5 5.5 2.9 11.3 2.9c2.3 0 4.5.8 6.2 2.1v-.9c-1.8-1.2-3.9-1.9-6.2-1.9C5.1 2.2 0 7.3 0 13.5s5.1 11.3 11.3 11.3c6.2 0 11.3-5.1 11.3-11.3 0-2.3-.7-4.4-1.8-6.1z"/></g></symbol><symbol id="service_3-hover" viewBox="0 0 23.2 21.6"><path fill="none" stroke="#a70c5d" stroke-width=".75" stroke-miterlimit="10" d="M3.6 17.1L2 20.6.5 17.1V1.4h3.1z"/><path fill="none" stroke="#a70c5d" stroke-width=".5" stroke-miterlimit="10" d="M2 1.4v15.7m-.6 2.1h1.3"/><path fill="none" stroke="#a70c5d" stroke-width=".75" stroke-linecap="round" stroke-linejoin="round" stroke-miterlimit="10" d="M.7 17.1h2.7"/><path fill="none" stroke="#a70c5d" stroke-width=".75" stroke-miterlimit="10" d="M6.9 5h14v16.1h-14zM19 5v16.1m1.9-2.4h1.9V2.9M8.5 8.2h5.7M8.5 9.9h9.1m-9.1 1.6h5.7m-5.7 1.7h9.1m-9.1 1.6h5.7"/><path fill="none" stroke="#a70c5d" stroke-width=".75" stroke-linecap="round" stroke-linejoin="round" stroke-miterlimit="10" d="M7.9.4h12"/><path d="M22.4 2.9h.7v-.1c0-1.6-1.3-2.8-2.8-2.8s-2.8 1.3-2.8 2.8c0 .9.4 1.6 1 2.2h1.4v-.1c-.9-.2-1.6-1-1.6-2 0-1.1.9-2.1 2.1-2.1s2 .9 2 2.1zm-16-.1c0-1 .7-1.9 1.7-2V0C6.7.2 5.6 1.4 5.6 2.8c0 .9.4 1.6 1 2.2H8v-.2c-.9-.2-1.6-1-1.6-2z" fill="#a70c5d"/><circle cx="20.4" cy="2.8" r=".9" fill="none" stroke="#a70c5d" stroke-width=".5" stroke-miterlimit="10"/><path fill="none" stroke="#a70c5d" stroke-width=".5" stroke-miterlimit="10" d="M6.4 2.8h1.7m8.1 0H18"/><path fill="#a70c5d" stroke-width=".276" stroke-miterlimit="10" d="M2.7 19.2l-.6 1.4-.6-1.4z"/></symbol><symbol id="service_3" viewBox="0 0 23.2 21.6"><path fill="none" stroke="#a5a6ac" stroke-width=".75" stroke-miterlimit="10" d="M3.6 17.1L2 20.6.5 17.1V1.4h3.1z"/><path fill="none" stroke="#a5a6ac" stroke-width=".5" stroke-miterlimit="10" d="M2 1.4v15.7m-.6 2.1h1.3"/><path fill="none" stroke="#a5a6ac" stroke-width=".75" stroke-linecap="round" stroke-linejoin="round" stroke-miterlimit="10" d="M.7 17.1h2.7"/><path fill="none" stroke="#a5a6ac" stroke-width=".75" stroke-miterlimit="10" d="M6.9 5h14v16.1h-14zM19 5v16.1m1.9-2.4h1.9V2.9M8.5 8.2h5.7M8.5 9.9h9.1m-9.1 1.6h5.7m-5.7 1.7h9.1m-9.1 1.6h5.7"/><path fill="none" stroke="#a5a6ac" stroke-width=".75" stroke-linecap="round" stroke-linejoin="round" stroke-miterlimit="10" d="M7.9.4h12"/><path d="M22.4 2.9h.7v-.1c0-1.6-1.3-2.8-2.8-2.8s-2.8 1.3-2.8 2.8c0 .9.4 1.6 1 2.2h1.4v-.1c-.9-.2-1.6-1-1.6-2 0-1.1.9-2.1 2.1-2.1s2 .9 2 2.1zm-16-.1c0-1 .7-1.9 1.7-2V0C6.7.2 5.6 1.4 5.6 2.8c0 .9.4 1.6 1 2.2H8v-.2c-.9-.2-1.6-1-1.6-2z" fill="#a5a6ac"/><circle cx="20.4" cy="2.8" r=".9" fill="none" stroke="#a5a6ac" stroke-width=".5" stroke-miterlimit="10"/><path fill="none" stroke="#a5a6ac" stroke-width=".5" stroke-miterlimit="10" d="M6.4 2.8h1.7m8.1 0H18"/><path fill="#a5a6ac" stroke-width=".276" stroke-miterlimit="10" d="M2.7 19.2l-.6 1.4-.6-1.4z"/></symbol><symbol id="service_4" viewBox="0 0 24.4 23.9"><g stroke-miterlimit="10"><g stroke-width=".75"><path d="M3.8 9.4h2.6V18H3.8z"/><path d="M2.7 7.9c-.1.1-.1.3-.1.5 0 .8.7 1.5 1.5 1.5h2.1c.8 0 1.5-.7 1.5-1.5 0-.2 0-.4-.1-.6H2.7zm4.9 11.7c.1-.2.1-.4.1-.6 0-.8-.7-1.5-1.5-1.5H4.1c-.8 0-1.5.7-1.5 1.5 0 .2 0 .4.1.6h4.9z"/></g><g stroke-width=".75"><path d="M11 9.4h2.6V18H11z"/><path d="M9.8 7.9c-.1.1-.1.3-.1.5 0 .8.7 1.5 1.5 1.5h2.1c.8 0 1.5-.7 1.5-1.5 0-.2 0-.4-.1-.6H9.8zm4.9 11.7c.1-.2.1-.4.1-.6 0-.8-.7-1.5-1.5-1.5h-2.1c-.8 0-1.5.7-1.5 1.5 0 .2 0 .4.1.6h4.9z"/></g><g stroke-width=".75"><path d="M18.1 9.4h2.6V18h-2.6z"/><path d="M16.9 7.9c-.1.2-.1.4-.1.6 0 .8.7 1.5 1.5 1.5h2.1c.8 0 1.5-.7 1.5-1.5 0-.2 0-.4-.1-.6h-4.9zm4.9 11.7c.1-.2.1-.4.1-.6 0-.8-.7-1.5-1.5-1.5h-2.1c-.8 0-1.5.7-1.5 1.5 0 .2 0 .4.1.6h4.9z"/></g><path fill="none" stroke-width=".5" d="M5.1 9.9v7.7m7.1-7.7v7.7m7.2-7.7v7.7"/><path stroke-width=".75" d="M2.2 19.6h20v1.5h-20z"/><path fill="none" stroke-width=".75" d="M24 7.8H.5V6.4L12.3.5 24 6.4z"/><ellipse cx="12.1" cy="4.3" rx="1.6" ry="1.6" fill="none" stroke-width=".75"/><path stroke-width=".75" d="M.6 21h23.3v2.6H.6z"/><path d="M.7 22.3h3.1m16.9 0h3.1" fill="none" stroke-width=".5"/></g></symbol><symbol id="twitter_ico" viewBox="0 0 612 612"><path d="M612 116.258a250.714 250.714 0 0 1-72.088 19.772c25.929-15.527 45.777-40.155 55.184-69.411-24.322 14.379-51.169 24.82-79.775 30.48-22.907-24.437-55.49-39.658-91.63-39.658-69.334 0-125.551 56.217-125.551 125.513 0 9.828 1.109 19.427 3.251 28.606-104.326-5.24-196.835-55.223-258.75-131.174-10.823 18.51-16.98 40.078-16.98 63.101 0 43.559 22.181 81.993 55.835 104.479a125.556 125.556 0 0 1-56.867-15.756v1.568c0 60.806 43.291 111.554 100.693 123.104-10.517 2.83-21.607 4.398-33.08 4.398-8.107 0-15.947-.803-23.634-2.333 15.985 49.907 62.336 86.199 117.253 87.194-42.947 33.654-97.099 53.655-155.916 53.655-10.134 0-20.116-.612-29.944-1.721 55.567 35.681 121.536 56.485 192.438 56.485 230.948 0 357.188-191.291 357.188-357.188l-.421-16.253c24.666-17.593 46.005-39.697 62.794-64.861z"/></symbol><symbol id="youtube_ico" viewBox="0 0 12.8 12.8"><path d="M6.4 0C2.9 0 0 2.9 0 6.4c0 3.5 2.9 6.4 6.4 6.4 3.5 0 6.4-2.9 6.4-6.4C12.8 2.9 9.9 0 6.4 0zm3.9 7.8c0 .5-.4 1.2-1 1.3-1.8.1-4 .1-5.8 0-.6-.1-1-.8-1-1.3-.1-1.1-.1-1.7 0-2.8 0-.5.4-1.2 1-1.3 1.9-.2 4-.1 5.8 0 .6 0 1 .7 1 1.2.1 1.1.1 1.8 0 2.9zm0 0"/><path d="M5.6 8L8 6.4 5.6 4.8V8zm0 0"/></symbol></svg>