<svg xmlns="http://www.w3.org/2000/svg" width="40" height="40" viewBox="0 0 23.2 21.6"><path fill="none" stroke="#a5a6ac" stroke-width=".75" stroke-miterlimit="10" d="M3.6 17.1L2 20.6.5 17.1V1.4h3.1z"/><path fill="none" stroke="#a5a6ac" stroke-width=".5" stroke-miterlimit="10" d="M2 1.4v15.7m-.6 2.1h1.3"/><path fill="none" stroke="#a5a6ac" stroke-width=".75" stroke-linecap="round" stroke-linejoin="round" stroke-miterlimit="10" d="M.7 17.1h2.7"/><path fill="none" stroke="#a5a6ac" stroke-width=".75" stroke-miterlimit="10" d="M6.9 5h14v16.1h-14zM19 5v16.1m1.9-2.4h1.9V2.9M8.5 8.2h5.7M8.5 9.9h9.1m-9.1 1.6h5.7m-5.7 1.7h9.1m-9.1 1.6h5.7"/><path fill="none" stroke="#a5a6ac" stroke-width=".75" stroke-linecap="round" stroke-linejoin="round" stroke-miterlimit="10" d="M7.9.4h12"/><path d="M22.4 2.9h.7v-.1c0-1.6-1.3-2.8-2.8-2.8s-2.8 1.3-2.8 2.8c0 .9.4 1.6 1 2.2h1.4v-.1c-.9-.2-1.6-1-1.6-2 0-1.1.9-2.1 2.1-2.1s2 .9 2 2.1zm-16-.1c0-1 .7-1.9 1.7-2V0C6.7.2 5.6 1.4 5.6 2.8c0 .9.4 1.6 1 2.2H8v-.2c-.9-.2-1.6-1-1.6-2z" fill="#a5a6ac"/><circle cx="20.4" cy="2.8" r=".9" fill="none" stroke="#a5a6ac" stroke-width=".5" stroke-miterlimit="10"/><path fill="none" stroke="#a5a6ac" stroke-width=".5" stroke-miterlimit="10" d="M6.4 2.8h1.7m8.1 0H18"/><path fill="#a5a6ac" stroke-width=".276" stroke-miterlimit="10" d="M2.7 19.2l-.6 1.4-.6-1.4z"/></svg>