<svg xmlns="http://www.w3.org/2000/svg" width="42" height="41" viewBox="0 0 24.4 23.9"><g stroke-miterlimit="10"><g stroke-width=".75"><path d="M3.8 9.4h2.6V18H3.8z"/><path d="M2.7 7.9c-.1.1-.1.3-.1.5 0 .8.7 1.5 1.5 1.5h2.1c.8 0 1.5-.7 1.5-1.5 0-.2 0-.4-.1-.6H2.7zm4.9 11.7c.1-.2.1-.4.1-.6 0-.8-.7-1.5-1.5-1.5H4.1c-.8 0-1.5.7-1.5 1.5 0 .2 0 .4.1.6h4.9z"/></g><g stroke-width=".75"><path d="M11 9.4h2.6V18H11z"/><path d="M9.8 7.9c-.1.1-.1.3-.1.5 0 .8.7 1.5 1.5 1.5h2.1c.8 0 1.5-.7 1.5-1.5 0-.2 0-.4-.1-.6H9.8zm4.9 11.7c.1-.2.1-.4.1-.6 0-.8-.7-1.5-1.5-1.5h-2.1c-.8 0-1.5.7-1.5 1.5 0 .2 0 .4.1.6h4.9z"/></g><g stroke-width=".75"><path d="M18.1 9.4h2.6V18h-2.6z"/><path d="M16.9 7.9c-.1.2-.1.4-.1.6 0 .8.7 1.5 1.5 1.5h2.1c.8 0 1.5-.7 1.5-1.5 0-.2 0-.4-.1-.6h-4.9zm4.9 11.7c.1-.2.1-.4.1-.6 0-.8-.7-1.5-1.5-1.5h-2.1c-.8 0-1.5.7-1.5 1.5 0 .2 0 .4.1.6h4.9z"/></g><path fill="none" stroke-width=".5" d="M5.1 9.9v7.7m7.1-7.7v7.7m7.2-7.7v7.7"/><path stroke-width=".75" d="M2.2 19.6h20v1.5h-20z"/><path fill="none" stroke-width=".75" d="M24 7.8H.5V6.4L12.3.5 24 6.4z"/><ellipse cx="12.1" cy="4.3" rx="1.6" ry="1.6" fill="none" stroke-width=".75"/><path stroke-width=".75" d="M.6 21h23.3v2.6H.6z"/><path d="M.7 22.3h3.1m16.9 0h3.1" fill="none" stroke-width=".5"/></g></svg>