<svg xmlns="http://www.w3.org/2000/svg" width="42" height="42" viewBox="0 0 24.9 24.8"><g stroke-width=".2" stroke-miterlimit="10"><path d="M11.3 21.6c-4.5 0-8.1-3.6-8.1-8.1s3.6-8.1 8.1-8.1 8.1 3.6 8.1 8.1-3.6 8.1-8.1 8.1zm0-15.5c-4.1 0-7.4 3.3-7.4 7.4s3.3 7.4 7.4 7.4 7.4-3.3 7.4-7.4-3.4-7.4-7.4-7.4z"/><path d="M11.3 18.5c-2.8 0-5-2.3-5-5s2.3-5 5-5 5 2.3 5 5-2.2 5-5 5zm0-9.3C8.9 9.2 7 11.1 7 13.5s1.9 4.3 4.3 4.3 4.3-1.9 4.3-4.3-1.9-4.3-4.3-4.3z"/><path d="M11.3 15c-.9 0-1.5-.7-1.5-1.5s.7-1.5 1.5-1.5 1.5.7 1.5 1.5-.7 1.5-1.5 1.5zm0-2.3c-.4 0-.8.4-.8.8s.4.8.8.8.8-.4.8-.8-.4-.8-.8-.8z"/><path d="M11.7 13.5c-.1 0-.2 0-.3-.1-.1-.1-.1-.4 0-.5l9.5-9.6c.1-.1.4-.1.5 0 .1.1.1.4 0 .5L12 13.4c-.1.1-.2.1-.3.1z"/><path d="M22 7.8h-4.8v-5h1.5V1.6h1.2V0h2.7v2.2h2.3v2.5h-1.6v1.5H22v1.6zM17.9 7h3.3V5.4h1.3V3.9h1.6v-1h-2.3V.8h-1.2v1.6h-1.2v1.3h-1.5V7z"/><path d="M20.8 7.4h-.9c1.2 1.7 2 3.8 2 6.1 0 5.8-4.7 10.5-10.5 10.5S.8 19.3.8 13.5 5.5 2.9 11.3 2.9c2.3 0 4.5.8 6.2 2.1v-.9c-1.8-1.2-3.9-1.9-6.2-1.9C5.1 2.2 0 7.3 0 13.5s5.1 11.3 11.3 11.3c6.2 0 11.3-5.1 11.3-11.3 0-2.3-.7-4.4-1.8-6.1z"/></g></svg>